<?xml version="1.0" encoding="utf-8"?>
<!-- Generator: Adobe Illustrator 27.9.0, SVG Export Plug-In . SVG Version: 6.00 Build 0)  -->
<svg version="1.1" id="Layer_1" xmlns="http://www.w3.org/2000/svg" xmlns:xlink="http://www.w3.org/1999/xlink" x="0px" y="0px"
	 viewBox="0 0 512 512" style="enable-background:new 0 0 512 512;" xml:space="preserve">
<style type="text/css">
	.st0{fill:#333333;}
</style>
<path class="st0" d="M128,102.4c0-14.1,11.5-25.6,25.6-25.6h332.8c14.1,0,25.6,11.5,25.6,25.6S500.5,128,486.4,128H153.6
	C139.5,128,128,116.5,128,102.4z M486.4,230.4H25.6C11.5,230.4,0,241.9,0,256s11.5,25.6,25.6,25.6h460.8c14.1,0,25.6-11.5,25.6-25.6
	S500.5,230.4,486.4,230.4z M486.4,384H256c-14.1,0-25.6,11.5-25.6,25.6s11.5,25.6,25.6,25.6h230.4c14.1,0,25.6-11.5,25.6-25.6
	S500.5,384,486.4,384z"/>
</svg>
